<?xml version="1.0" encoding="utf-8"?>
<!-- Generator: Adobe Illustrator 24.3.0, SVG Export Plug-In . SVG Version: 6.00 Build 0)  -->
<svg version="1.1" id="레이어_1" xmlns="http://www.w3.org/2000/svg" xmlns:xlink="http://www.w3.org/1999/xlink" x="0px"
	 y="0px" viewBox="0 0 48 48" style="enable-background:new 0 0 48 48;" xml:space="preserve">
<style type="text/css">
	.st0{fill:none;stroke:#000000;stroke-width:2.3664;stroke-linecap:round;stroke-linejoin:round;stroke-miterlimit:10;}
	.st1{fill:none;stroke:#000000;stroke-width:2.3328;stroke-linecap:round;stroke-linejoin:round;stroke-miterlimit:10;}
	.st2{fill:none;stroke:#000000;stroke-width:2.1281;stroke-linecap:round;stroke-linejoin:round;stroke-miterlimit:10;}
	.st3{fill:none;stroke:#000000;stroke-width:2.4002;stroke-linecap:round;stroke-linejoin:round;stroke-miterlimit:10;}
</style>
<g>
	<line class="st0" x1="11" y1="14.5" x2="15.7" y2="14.5"/>
	<line class="st1" x1="11" y1="19.7" x2="19.7" y2="19.7"/>
	<line class="st2" x1="11" y1="25" x2="24.4" y2="25"/>
	<g>
		<path class="st3" d="M31.7,19.2c0.1,0.1,0.2,0.2,0.3,0.2v13.9c0,2,1.7,3.7,3.7,3.7c2,0,3.7-1.7,3.7-3.7V19.4
			c2.5-1.3,4.2-3.9,4.2-6.9c0-2.9-1.6-5.5-4-6.8v6.4l-4.2,2.4l-3.6-2.2"/>
		<path class="st2" d="M31.7,12.3V5.7H7.8c-1.9,0-3.4,1.5-3.4,3.4v22.4c0,1.9,1.5,3.4,3.4,3.4h5.8v7.5l8.5-7.5h9.5V19.2
			c-2.3-1.4-3.8-3.9-3.8-6.7c0-2.7,1.4-5.1,3.4-6.5"/>
		<path class="st3" d="M31.2,6c-2.1,1.4-3.4,3.8-3.4,6.5c0,2.9,1.5,5.4,3.8,6.7"/>
	</g>
</g>
</svg>
