<svg xmlns="http://www.w3.org/2000/svg" viewBox="0 0 38.66 40.34"><defs><style>.cls-1{fill:none;stroke:#231916;stroke-miterlimit:10;stroke-width:3.76px;}</style></defs><g id="Layer_2" data-name="Layer 2"><g id="레이어_1" data-name="레이어 1"><path class="cls-1" d="M22.67,20.2A3.22,3.22,0,1,1,19.45,17,3.22,3.22,0,0,1,22.67,20.2Z"/><line class="cls-1" x1="19.45" y1="2.65" x2="19.45" y2="16.62"/><line class="cls-1" x1="20.77" y1="1.34" x2="13.5" y2="8.51"/><line class="cls-1" x1="18.7" y1="1.91" x2="25.39" y2="8.51"/><line class="cls-1" x1="36.01" y1="20.2" x2="22.04" y2="20.2"/><line class="cls-1" x1="37.32" y1="21.53" x2="30.15" y2="14.25"/><line class="cls-1" x1="36.75" y1="19.45" x2="30.15" y2="26.15"/><line class="cls-1" x1="19.45" y1="37.69" x2="19.45" y2="23.72"/><line class="cls-1" x1="18.12" y1="39" x2="25.39" y2="31.83"/><line class="cls-1" x1="20.2" y1="38.43" x2="13.5" y2="31.83"/><line class="cls-1" x1="2.65" y1="20.14" x2="16.62" y2="20.14"/><line class="cls-1" x1="1.34" y1="18.81" x2="8.51" y2="26.09"/><line class="cls-1" x1="1.91" y1="20.89" x2="8.51" y2="14.19"/></g></g></svg>