<?xml version="1.0" encoding="utf-8"?>
<!-- Generator: Adobe Illustrator 24.3.0, SVG Export Plug-In . SVG Version: 6.00 Build 0)  -->
<svg version="1.2" baseProfile="tiny" id="레이어_1"
	 xmlns="http://www.w3.org/2000/svg" xmlns:xlink="http://www.w3.org/1999/xlink" x="0px" y="0px" viewBox="0 0 24 24"
	 overflow="visible" xml:space="preserve">
<g>
	<line fill="none" stroke="#000000" stroke-width="1.5872" stroke-miterlimit="10" x1="4.5" y1="15" x2="4.5" y2="20.8"/>
	<line fill="none" stroke="#000000" stroke-width="1.5872" stroke-miterlimit="10" x1="7.3" y1="16.2" x2="7.3" y2="20.7"/>
	<line fill="none" stroke="#000000" stroke-width="1.5872" stroke-miterlimit="10" x1="10" y1="17.3" x2="10" y2="20.7"/>
	<path fill="none" stroke="#000000" stroke-width="1.5872" stroke-miterlimit="10" d="M18.4,7.8l-1-1L16,5.4c-0.3-0.3-0.7-0.3-0.9,0
		l-1.5,1.5l-1-1l-2.4-2.4C9.7,3,9,3,8.5,3.4l-4,4.1C4,7.9,4,8.6,4.5,9l2.4,2.4L8.5,13l0.8,0.8l4.2-4.2l0.5,0.5l1,1l0.5,0.5l3.4-3.4
		L18.4,7.8z"/>
	<path d="M12.8,13.9v1v2v3c0,0.6,0.4,1,1,1H19c0.6,0,1-0.4,1-1v-3v-2v-1H12.8z M18.6,18.9l-0.8,0.8l-1.5-1.5l-1.5,1.5l-0.8-0.8
		l1.5-1.5l-1.5-1.5l0.8-0.8l1.5,1.5l1.5-1.5l0.8,0.8l-1.5,1.5L18.6,18.9z"/>
</g>
</svg>
